<svg xmlns="http://www.w3.org/2000/svg" xmlns:xlink="http://www.w3.org/1999/xlink" width="1920" height="1080" viewBox="0 0 1920 1080"><defs><linearGradient id="a" x1="1.007" x2="-0.013" y2="1.012" gradientUnits="objectBoundingBox"><stop offset="0" stop-color="#cc1f66" stop-opacity="0.722"/><stop offset="1" stop-color="#070063"/></linearGradient><linearGradient id="b" x1="1" y1="0.086" x2="-0.623" y2="1.081" gradientUnits="objectBoundingBox"><stop offset="0" stop-color="#e1c7cb" stop-opacity="0.259"/><stop offset="1" stop-color="#eca5d5" stop-opacity="0.38"/></linearGradient><filter id="c" x="-0.01" y="361.684" width="1919.792" height="718.316" filterUnits="userSpaceOnUse"><feOffset dx="26" dy="3" input="SourceAlpha"/><feGaussianBlur stdDeviation="4" result="d"/><feFlood flood-opacity="0.161" result="e"/><feComposite operator="out" in="SourceGraphic" in2="d"/><feComposite operator="in" in="e"/><feComposite operator="in" in2="SourceGraphic"/></filter><filter id="f" x="226" y="115" width="1488" height="857" filterUnits="userSpaceOnUse"><feOffset dx="10" dy="3" input="SourceAlpha"/><feGaussianBlur stdDeviation="3" result="g"/><feFlood flood-opacity="0.161"/><feComposite operator="in" in2="g"/><feComposite in="SourceGraphic"/></filter><clipPath id="h"><rect width="66" height="714" fill="none"/></clipPath><linearGradient id="i" x1="0.162" y1="0.052" x2="0.957" y2="0.988" gradientUnits="objectBoundingBox"><stop offset="0" stop-color="#fff" stop-opacity="0"/><stop offset="1" stop-color="#c7bbbb" stop-opacity="0.102"/></linearGradient><filter id="j" x="1364.269" y="125.172" width="390.147" height="837.713" filterUnits="userSpaceOnUse"><feOffset dx="12" dy="3" input="SourceAlpha"/><feGaussianBlur stdDeviation="3" result="k"/><feFlood flood-opacity="0.161"/><feComposite operator="in" in2="k"/><feComposite in="SourceGraphic"/></filter><clipPath id="m"><rect width="1920" height="1080"/></clipPath></defs><g id="l" clip-path="url(#m)"><rect width="1920" height="1080" fill="url(#a)"/><g transform="translate(62 24)"><rect width="8" height="8" rx="4" transform="translate(67 40)" fill="#ff13a1" opacity="0.4"/><rect width="8" height="8" rx="4" transform="translate(90 40)" fill="#ff13a1" opacity="0.4"/><rect width="8" height="8" rx="4" transform="translate(113 40)" fill="#ff13a1" opacity="0.4"/><rect width="8" height="8" rx="4" transform="translate(136 40)" fill="#ff13a1" opacity="0.4"/><rect width="8" height="8" rx="4" transform="translate(160 40)" fill="#ff13a1" opacity="0.4"/><rect width="8" height="8" rx="4" transform="translate(182 40)" fill="#ff13a1" opacity="0.4"/><rect width="8" height="8" rx="4" transform="translate(67 63)" fill="#ff13a1" opacity="0.4"/><rect width="8" height="8" rx="4" transform="translate(90 63)" fill="#ff13a1" opacity="0.4"/><rect width="8" height="8" rx="4" transform="translate(113 63)" fill="#ff13a1" opacity="0.4"/><rect width="8" height="8" rx="4" transform="translate(136 63)" fill="#ff13a1" opacity="0.4"/><rect width="8" height="8" rx="4" transform="translate(160 63)" fill="#ff13a1" opacity="0.4"/><rect width="8" height="8" rx="4" transform="translate(182 63)" fill="#ff13a1" opacity="0.4"/><rect width="8" height="8" rx="4" transform="translate(67 86)" fill="#ff13a1" opacity="0.4"/><rect width="8" height="8" rx="4" transform="translate(90 86)" fill="#ff13a1" opacity="0.4"/><rect width="8" height="8" rx="4" transform="translate(113 86)" fill="#ff13a1" opacity="0.4"/><rect width="8" height="8" rx="4" transform="translate(136 86)" fill="#ff13a1" opacity="0.4"/><rect width="8" height="8" rx="4" transform="translate(160 86)" fill="#ff13a1" opacity="0.4"/><rect width="8" height="8" rx="4" transform="translate(182 86)" fill="#ff13a1" opacity="0.4"/><rect width="8" height="8" rx="4" transform="translate(67 109)" fill="#ff13a1" opacity="0.4"/><rect width="8" height="8" rx="4" transform="translate(90 109)" fill="#ff13a1" opacity="0.4"/><rect width="8" height="8" rx="4" transform="translate(113 109)" fill="#ff13a1" opacity="0.4"/><rect width="8" height="8" rx="4" transform="translate(136 109)" fill="#ff13a1" opacity="0.4"/><rect width="8" height="8" rx="4" transform="translate(160 109)" fill="#ff13a1" opacity="0.4"/><rect width="8" height="8" rx="4" transform="translate(182 109)" fill="#ff13a1" opacity="0.4"/><rect width="8" height="8" rx="4" transform="translate(67 133)" fill="#ff13a1" opacity="0.4"/><rect width="8" height="8" rx="4" transform="translate(90 133)" fill="#ff13a1" opacity="0.4"/><rect width="8" height="8" rx="4" transform="translate(113 133)" fill="#ff13a1" opacity="0.4"/><rect width="8" height="8" rx="4" transform="translate(136 133)" fill="#ff13a1" opacity="0.4"/><rect width="8" height="8" rx="4" transform="translate(160 133)" fill="#ff13a1" opacity="0.4"/><rect width="8" height="8" rx="4" transform="translate(182 133)" fill="#ff13a1" opacity="0.4"/><rect width="8" height="8" rx="4" transform="translate(67 155)" fill="#ff13a1" opacity="0.4"/><rect width="8" height="8" rx="4" transform="translate(90 155)" fill="#ff13a1" opacity="0.4"/><rect width="8" height="8" rx="4" transform="translate(113 155)" fill="#ff13a1" opacity="0.4"/><rect width="8" height="8" rx="4" transform="translate(136 155)" fill="#ff13a1" opacity="0.4"/><rect width="8" height="8" rx="4" transform="translate(160 155)" fill="#ff13a1" opacity="0.4"/><rect width="8" height="8" rx="4" transform="translate(182 155)" fill="#ff13a1" opacity="0.4"/></g><g data-type="innerShadowGroup"><path d="M215,987s-7-309,345-315,274-188,452-174,170-306,370-212,222,194,430,148,322.781,72.375,322.781,72.375l-.125,480.125Z" transform="translate(-215 93)" fill="url(#b)"/><g transform="matrix(1, 0, 0, 1, 0, 0)" filter="url(#c)"><path d="M215,987s-7-309,345-315,274-188,452-174,170-306,370-212,222,194,430,148,322.781,72.375,322.781,72.375l-.125,480.125Z" transform="translate(-215 93)" fill="#fff"/></g></g><g transform="matrix(1, 0, 0, 1, 0, 0)" filter="url(#f)"><rect width="1469" height="839" rx="10" transform="translate(226 121)" fill="#180229" opacity="0.99"/></g><g transform="translate(1658 32)"><rect width="8" height="8" rx="4" transform="translate(67 40)" fill="#fff" opacity="0.4"/><rect width="8" height="8" rx="4" transform="translate(90 40)" fill="#fff" opacity="0.4"/><rect width="8" height="8" rx="4" transform="translate(113 40)" fill="#fff" opacity="0.4"/><rect width="8" height="8" rx="4" transform="translate(136 40)" fill="#fff" opacity="0.4"/><rect width="8" height="8" rx="4" transform="translate(160 40)" fill="#fff" opacity="0.4"/><rect width="8" height="8" rx="4" transform="translate(182 40)" fill="#fff" opacity="0.4"/><rect width="8" height="8" rx="4" transform="translate(67 63)" fill="#fff" opacity="0.4"/><rect width="8" height="8" rx="4" transform="translate(90 63)" fill="#fff" opacity="0.4"/><rect width="8" height="8" rx="4" transform="translate(113 63)" fill="#fff" opacity="0.4"/><rect width="8" height="8" rx="4" transform="translate(136 63)" fill="#fff" opacity="0.4"/><rect width="8" height="8" rx="4" transform="translate(160 63)" fill="#fff" opacity="0.4"/><rect width="8" height="8" rx="4" transform="translate(182 63)" fill="#fff" opacity="0.4"/><rect width="8" height="8" rx="4" transform="translate(67 86)" fill="#fff" opacity="0.4"/><rect width="8" height="8" rx="4" transform="translate(90 86)" fill="#fff" opacity="0.4"/><rect width="8" height="8" rx="4" transform="translate(113 86)" fill="#fff" opacity="0.4"/><rect width="8" height="8" rx="4" transform="translate(136 86)" fill="#fff" opacity="0.4"/><rect width="8" height="8" rx="4" transform="translate(160 86)" fill="#fff" opacity="0.4"/><rect width="8" height="8" rx="4" transform="translate(182 86)" fill="#fff" opacity="0.4"/><rect width="8" height="8" rx="4" transform="translate(67 109)" fill="#fff" opacity="0.4"/><rect width="8" height="8" rx="4" transform="translate(90 109)" fill="#fff" opacity="0.4"/><rect width="8" height="8" rx="4" transform="translate(113 109)" fill="#fff" opacity="0.4"/><rect width="8" height="8" rx="4" transform="translate(136 109)" fill="#fff" opacity="0.4"/><rect width="8" height="8" rx="4" transform="translate(160 109)" fill="#fff" opacity="0.4"/><rect width="8" height="8" rx="4" transform="translate(182 109)" fill="#fff" opacity="0.4"/><rect width="8" height="8" rx="4" transform="translate(67 133)" fill="#fff" opacity="0.4"/><rect width="8" height="8" rx="4" transform="translate(90 133)" fill="#fff" opacity="0.4"/><rect width="8" height="8" rx="4" transform="translate(113 133)" fill="#fff" opacity="0.4"/><rect width="8" height="8" rx="4" transform="translate(136 133)" fill="#fff" opacity="0.4"/><rect width="8" height="8" rx="4" transform="translate(160 133)" fill="#fff" opacity="0.4"/><rect width="8" height="8" rx="4" transform="translate(182 133)" fill="#fff" opacity="0.4"/><rect width="8" height="8" rx="4" transform="translate(67 155)" fill="#fff" opacity="0.4"/><rect width="8" height="8" rx="4" transform="translate(90 155)" fill="#fff" opacity="0.4"/><rect width="8" height="8" rx="4" transform="translate(113 155)" fill="#fff" opacity="0.4"/><rect width="8" height="8" rx="4" transform="translate(136 155)" fill="#fff" opacity="0.4"/><rect width="8" height="8" rx="4" transform="translate(160 155)" fill="#fff" opacity="0.4"/><rect width="8" height="8" rx="4" transform="translate(182 155)" fill="#fff" opacity="0.4"/></g><g transform="translate(259 187)" clip-path="url(#h)"><g transform="translate(-67 -40)"><rect width="8" height="8" rx="4" transform="translate(67 40)" fill="#fff" opacity="0.4"/><rect width="8" height="8" rx="4" transform="translate(90 40)" fill="#fff" opacity="0.4"/><rect width="8" height="8" rx="4" transform="translate(113 40)" fill="#fff" opacity="0.4"/><rect width="8" height="8" rx="4" transform="translate(136 40)" fill="#fff" opacity="0.4"/><rect width="8" height="8" rx="4" transform="translate(160 40)" fill="#fff" opacity="0.4"/><rect width="8" height="8" rx="4" transform="translate(182 40)" fill="#fff" opacity="0.4"/><rect width="8" height="8" rx="4" transform="translate(67 63)" fill="#fff" opacity="0.4"/><rect width="8" height="8" rx="4" transform="translate(90 63)" fill="#fff" opacity="0.4"/><rect width="8" height="8" rx="4" transform="translate(113 63)" fill="#fff" opacity="0.4"/><rect width="8" height="8" rx="4" transform="translate(136 63)" fill="#fff" opacity="0.4"/><rect width="8" height="8" rx="4" transform="translate(160 63)" fill="#fff" opacity="0.4"/><rect width="8" height="8" rx="4" transform="translate(182 63)" fill="#fff" opacity="0.4"/><rect width="8" height="8" rx="4" transform="translate(67 86)" fill="#fff" opacity="0.4"/><rect width="8" height="8" rx="4" transform="translate(90 86)" fill="#fff" opacity="0.4"/><rect width="8" height="8" rx="4" transform="translate(113 86)" fill="#fff" opacity="0.4"/><rect width="8" height="8" rx="4" transform="translate(136 86)" fill="#fff" opacity="0.4"/><rect width="8" height="8" rx="4" transform="translate(160 86)" fill="#fff" opacity="0.4"/><rect width="8" height="8" rx="4" transform="translate(182 86)" fill="#fff" opacity="0.4"/><rect width="8" height="8" rx="4" transform="translate(67 109)" fill="#fff" opacity="0.4"/><rect width="8" height="8" rx="4" transform="translate(90 109)" fill="#fff" opacity="0.4"/><rect width="8" height="8" rx="4" transform="translate(113 109)" fill="#fff" opacity="0.4"/><rect width="8" height="8" rx="4" transform="translate(136 109)" fill="#fff" opacity="0.4"/><rect width="8" height="8" rx="4" transform="translate(160 109)" fill="#fff" opacity="0.4"/><rect width="8" height="8" rx="4" transform="translate(182 109)" fill="#fff" opacity="0.4"/><rect width="8" height="8" rx="4" transform="translate(67 133)" fill="#fff" opacity="0.4"/><rect width="8" height="8" rx="4" transform="translate(90 133)" fill="#fff" opacity="0.4"/><rect width="8" height="8" rx="4" transform="translate(113 133)" fill="#fff" opacity="0.4"/><rect width="8" height="8" rx="4" transform="translate(136 133)" fill="#fff" opacity="0.4"/><rect width="8" height="8" rx="4" transform="translate(160 133)" fill="#fff" opacity="0.4"/><rect width="8" height="8" rx="4" transform="translate(182 133)" fill="#fff" opacity="0.4"/><rect width="8" height="8" rx="4" transform="translate(67 155)" fill="#fff" opacity="0.4"/><rect width="8" height="8" rx="4" transform="translate(90 155)" fill="#fff" opacity="0.4"/><rect width="8" height="8" rx="4" transform="translate(113 155)" fill="#fff" opacity="0.4"/><rect width="8" height="8" rx="4" transform="translate(136 155)" fill="#fff" opacity="0.4"/><rect width="8" height="8" rx="4" transform="translate(160 155)" fill="#fff" opacity="0.4"/><rect width="8" height="8" rx="4" transform="translate(182 155)" fill="#fff" opacity="0.4"/></g><g transform="translate(-67 103)"><rect width="8" height="8" rx="4" transform="translate(67 40)" fill="#fff" opacity="0.4"/><rect width="8" height="8" rx="4" transform="translate(90 40)" fill="#fff" opacity="0.4"/><rect width="8" height="8" rx="4" transform="translate(113 40)" fill="#fff" opacity="0.4"/><rect width="8" height="8" rx="4" transform="translate(136 40)" fill="#fff" opacity="0.4"/><rect width="8" height="8" rx="4" transform="translate(160 40)" fill="#fff" opacity="0.4"/><rect width="8" height="8" rx="4" transform="translate(182 40)" fill="#fff" opacity="0.4"/><rect width="8" height="8" rx="4" transform="translate(67 63)" fill="#fff" opacity="0.4"/><rect width="8" height="8" rx="4" transform="translate(90 63)" fill="#fff" opacity="0.4"/><rect width="8" height="8" rx="4" transform="translate(113 63)" fill="#fff" opacity="0.4"/><rect width="8" height="8" rx="4" transform="translate(136 63)" fill="#fff" opacity="0.4"/><rect width="8" height="8" rx="4" transform="translate(160 63)" fill="#fff" opacity="0.4"/><rect width="8" height="8" rx="4" transform="translate(182 63)" fill="#fff" opacity="0.4"/><rect width="8" height="8" rx="4" transform="translate(67 86)" fill="#fff" opacity="0.4"/><rect width="8" height="8" rx="4" transform="translate(90 86)" fill="#fff" opacity="0.4"/><rect width="8" height="8" rx="4" transform="translate(113 86)" fill="#fff" opacity="0.4"/><rect width="8" height="8" rx="4" transform="translate(136 86)" fill="#fff" opacity="0.4"/><rect width="8" height="8" rx="4" transform="translate(160 86)" fill="#fff" opacity="0.4"/><rect width="8" height="8" rx="4" transform="translate(182 86)" fill="#fff" opacity="0.4"/><rect width="8" height="8" rx="4" transform="translate(67 109)" fill="#fff" opacity="0.4"/><rect width="8" height="8" rx="4" transform="translate(90 109)" fill="#fff" opacity="0.4"/><rect width="8" height="8" rx="4" transform="translate(113 109)" fill="#fff" opacity="0.4"/><rect width="8" height="8" rx="4" transform="translate(136 109)" fill="#fff" opacity="0.4"/><rect width="8" height="8" rx="4" transform="translate(160 109)" fill="#fff" opacity="0.4"/><rect width="8" height="8" rx="4" transform="translate(182 109)" fill="#fff" opacity="0.4"/><rect width="8" height="8" rx="4" transform="translate(67 133)" fill="#fff" opacity="0.4"/><rect width="8" height="8" rx="4" transform="translate(90 133)" fill="#fff" opacity="0.4"/><rect width="8" height="8" rx="4" transform="translate(113 133)" fill="#fff" opacity="0.4"/><rect width="8" height="8" rx="4" transform="translate(136 133)" fill="#fff" opacity="0.4"/><rect width="8" height="8" rx="4" transform="translate(160 133)" fill="#fff" opacity="0.4"/><rect width="8" height="8" rx="4" transform="translate(182 133)" fill="#fff" opacity="0.4"/><rect width="8" height="8" rx="4" transform="translate(67 155)" fill="#fff" opacity="0.4"/><rect width="8" height="8" rx="4" transform="translate(90 155)" fill="#fff" opacity="0.4"/><rect width="8" height="8" rx="4" transform="translate(113 155)" fill="#fff" opacity="0.4"/><rect width="8" height="8" rx="4" transform="translate(136 155)" fill="#fff" opacity="0.4"/><rect width="8" height="8" rx="4" transform="translate(160 155)" fill="#fff" opacity="0.4"/><rect width="8" height="8" rx="4" transform="translate(182 155)" fill="#fff" opacity="0.4"/></g><g transform="translate(-67 246)"><rect width="8" height="8" rx="4" transform="translate(67 40)" fill="#fff" opacity="0.4"/><rect width="8" height="8" rx="4" transform="translate(90 40)" fill="#fff" opacity="0.4"/><rect width="8" height="8" rx="4" transform="translate(113 40)" fill="#fff" opacity="0.4"/><rect width="8" height="8" rx="4" transform="translate(136 40)" fill="#fff" opacity="0.4"/><rect width="8" height="8" rx="4" transform="translate(160 40)" fill="#fff" opacity="0.4"/><rect width="8" height="8" rx="4" transform="translate(182 40)" fill="#fff" opacity="0.4"/><rect width="8" height="8" rx="4" transform="translate(67 63)" fill="#fff" opacity="0.4"/><rect width="8" height="8" rx="4" transform="translate(90 63)" fill="#fff" opacity="0.4"/><rect width="8" height="8" rx="4" transform="translate(113 63)" fill="#fff" opacity="0.4"/><rect width="8" height="8" rx="4" transform="translate(136 63)" fill="#fff" opacity="0.4"/><rect width="8" height="8" rx="4" transform="translate(160 63)" fill="#fff" opacity="0.4"/><rect width="8" height="8" rx="4" transform="translate(182 63)" fill="#fff" opacity="0.4"/><rect width="8" height="8" rx="4" transform="translate(67 86)" fill="#fff" opacity="0.4"/><rect width="8" height="8" rx="4" transform="translate(90 86)" fill="#fff" opacity="0.4"/><rect width="8" height="8" rx="4" transform="translate(113 86)" fill="#fff" opacity="0.4"/><rect width="8" height="8" rx="4" transform="translate(136 86)" fill="#fff" opacity="0.4"/><rect width="8" height="8" rx="4" transform="translate(160 86)" fill="#fff" opacity="0.4"/><rect width="8" height="8" rx="4" transform="translate(182 86)" fill="#fff" opacity="0.4"/><rect width="8" height="8" rx="4" transform="translate(67 109)" fill="#fff" opacity="0.4"/><rect width="8" height="8" rx="4" transform="translate(90 109)" fill="#fff" opacity="0.4"/><rect width="8" height="8" rx="4" transform="translate(113 109)" fill="#fff" opacity="0.4"/><rect width="8" height="8" rx="4" transform="translate(136 109)" fill="#fff" opacity="0.4"/><rect width="8" height="8" rx="4" transform="translate(160 109)" fill="#fff" opacity="0.4"/><rect width="8" height="8" rx="4" transform="translate(182 109)" fill="#fff" opacity="0.4"/><rect width="8" height="8" rx="4" transform="translate(67 133)" fill="#fff" opacity="0.4"/><rect width="8" height="8" rx="4" transform="translate(90 133)" fill="#fff" opacity="0.4"/><rect width="8" height="8" rx="4" transform="translate(113 133)" fill="#fff" opacity="0.4"/><rect width="8" height="8" rx="4" transform="translate(136 133)" fill="#fff" opacity="0.4"/><rect width="8" height="8" rx="4" transform="translate(160 133)" fill="#fff" opacity="0.4"/><rect width="8" height="8" rx="4" transform="translate(182 133)" fill="#fff" opacity="0.4"/><rect width="8" height="8" rx="4" transform="translate(67 155)" fill="#fff" opacity="0.4"/><rect width="8" height="8" rx="4" transform="translate(90 155)" fill="#fff" opacity="0.4"/><rect width="8" height="8" rx="4" transform="translate(113 155)" fill="#fff" opacity="0.4"/><rect width="8" height="8" rx="4" transform="translate(136 155)" fill="#fff" opacity="0.4"/><rect width="8" height="8" rx="4" transform="translate(160 155)" fill="#fff" opacity="0.4"/><rect width="8" height="8" rx="4" transform="translate(182 155)" fill="#fff" opacity="0.4"/></g><g transform="translate(-67 389)"><rect width="8" height="8" rx="4" transform="translate(67 40)" fill="#fff" opacity="0.4"/><rect width="8" height="8" rx="4" transform="translate(90 40)" fill="#fff" opacity="0.4"/><rect width="8" height="8" rx="4" transform="translate(113 40)" fill="#fff" opacity="0.4"/><rect width="8" height="8" rx="4" transform="translate(136 40)" fill="#fff" opacity="0.4"/><rect width="8" height="8" rx="4" transform="translate(160 40)" fill="#fff" opacity="0.4"/><rect width="8" height="8" rx="4" transform="translate(182 40)" fill="#fff" opacity="0.4"/><rect width="8" height="8" rx="4" transform="translate(67 63)" fill="#fff" opacity="0.4"/><rect width="8" height="8" rx="4" transform="translate(90 63)" fill="#fff" opacity="0.4"/><rect width="8" height="8" rx="4" transform="translate(113 63)" fill="#fff" opacity="0.4"/><rect width="8" height="8" rx="4" transform="translate(136 63)" fill="#fff" opacity="0.4"/><rect width="8" height="8" rx="4" transform="translate(160 63)" fill="#fff" opacity="0.4"/><rect width="8" height="8" rx="4" transform="translate(182 63)" fill="#fff" opacity="0.4"/><rect width="8" height="8" rx="4" transform="translate(67 86)" fill="#fff" opacity="0.4"/><rect width="8" height="8" rx="4" transform="translate(90 86)" fill="#fff" opacity="0.4"/><rect width="8" height="8" rx="4" transform="translate(113 86)" fill="#fff" opacity="0.4"/><rect width="8" height="8" rx="4" transform="translate(136 86)" fill="#fff" opacity="0.4"/><rect width="8" height="8" rx="4" transform="translate(160 86)" fill="#fff" opacity="0.4"/><rect width="8" height="8" rx="4" transform="translate(182 86)" fill="#fff" opacity="0.4"/><rect width="8" height="8" rx="4" transform="translate(67 109)" fill="#fff" opacity="0.4"/><rect width="8" height="8" rx="4" transform="translate(90 109)" fill="#fff" opacity="0.4"/><rect width="8" height="8" rx="4" transform="translate(113 109)" fill="#fff" opacity="0.4"/><rect width="8" height="8" rx="4" transform="translate(136 109)" fill="#fff" opacity="0.4"/><rect width="8" height="8" rx="4" transform="translate(160 109)" fill="#fff" opacity="0.4"/><rect width="8" height="8" rx="4" transform="translate(182 109)" fill="#fff" opacity="0.4"/><rect width="8" height="8" rx="4" transform="translate(67 133)" fill="#fff" opacity="0.4"/><rect width="8" height="8" rx="4" transform="translate(90 133)" fill="#fff" opacity="0.4"/><rect width="8" height="8" rx="4" transform="translate(113 133)" fill="#fff" opacity="0.4"/><rect width="8" height="8" rx="4" transform="translate(136 133)" fill="#fff" opacity="0.4"/><rect width="8" height="8" rx="4" transform="translate(160 133)" fill="#fff" opacity="0.4"/><rect width="8" height="8" rx="4" transform="translate(182 133)" fill="#fff" opacity="0.4"/><rect width="8" height="8" rx="4" transform="translate(67 155)" fill="#fff" opacity="0.4"/><rect width="8" height="8" rx="4" transform="translate(90 155)" fill="#fff" opacity="0.4"/><rect width="8" height="8" rx="4" transform="translate(113 155)" fill="#fff" opacity="0.4"/><rect width="8" height="8" rx="4" transform="translate(136 155)" fill="#fff" opacity="0.4"/><rect width="8" height="8" rx="4" transform="translate(160 155)" fill="#fff" opacity="0.4"/><rect width="8" height="8" rx="4" transform="translate(182 155)" fill="#fff" opacity="0.4"/></g><g transform="translate(-67 532)"><rect width="8" height="8" rx="4" transform="translate(67 40)" fill="#fff" opacity="0.4"/><rect width="8" height="8" rx="4" transform="translate(90 40)" fill="#fff" opacity="0.4"/><rect width="8" height="8" rx="4" transform="translate(113 40)" fill="#fff" opacity="0.4"/><rect width="8" height="8" rx="4" transform="translate(136 40)" fill="#fff" opacity="0.4"/><rect width="8" height="8" rx="4" transform="translate(160 40)" fill="#fff" opacity="0.4"/><rect width="8" height="8" rx="4" transform="translate(182 40)" fill="#fff" opacity="0.4"/><rect width="8" height="8" rx="4" transform="translate(67 63)" fill="#fff" opacity="0.4"/><rect width="8" height="8" rx="4" transform="translate(90 63)" fill="#fff" opacity="0.4"/><rect width="8" height="8" rx="4" transform="translate(113 63)" fill="#fff" opacity="0.4"/><rect width="8" height="8" rx="4" transform="translate(136 63)" fill="#fff" opacity="0.4"/><rect width="8" height="8" rx="4" transform="translate(160 63)" fill="#fff" opacity="0.4"/><rect width="8" height="8" rx="4" transform="translate(182 63)" fill="#fff" opacity="0.4"/><rect width="8" height="8" rx="4" transform="translate(67 86)" fill="#fff" opacity="0.4"/><rect width="8" height="8" rx="4" transform="translate(90 86)" fill="#fff" opacity="0.4"/><rect width="8" height="8" rx="4" transform="translate(113 86)" fill="#fff" opacity="0.4"/><rect width="8" height="8" rx="4" transform="translate(136 86)" fill="#fff" opacity="0.4"/><rect width="8" height="8" rx="4" transform="translate(160 86)" fill="#fff" opacity="0.4"/><rect width="8" height="8" rx="4" transform="translate(182 86)" fill="#fff" opacity="0.4"/><rect width="8" height="8" rx="4" transform="translate(67 109)" fill="#fff" opacity="0.4"/><rect width="8" height="8" rx="4" transform="translate(90 109)" fill="#fff" opacity="0.4"/><rect width="8" height="8" rx="4" transform="translate(113 109)" fill="#fff" opacity="0.4"/><rect width="8" height="8" rx="4" transform="translate(136 109)" fill="#fff" opacity="0.4"/><rect width="8" height="8" rx="4" transform="translate(160 109)" fill="#fff" opacity="0.4"/><rect width="8" height="8" rx="4" transform="translate(182 109)" fill="#fff" opacity="0.4"/><rect width="8" height="8" rx="4" transform="translate(67 133)" fill="#fff" opacity="0.4"/><rect width="8" height="8" rx="4" transform="translate(90 133)" fill="#fff" opacity="0.4"/><rect width="8" height="8" rx="4" transform="translate(113 133)" fill="#fff" opacity="0.4"/><rect width="8" height="8" rx="4" transform="translate(136 133)" fill="#fff" opacity="0.4"/><rect width="8" height="8" rx="4" transform="translate(160 133)" fill="#fff" opacity="0.4"/><rect width="8" height="8" rx="4" transform="translate(182 133)" fill="#fff" opacity="0.4"/><rect width="8" height="8" rx="4" transform="translate(67 155)" fill="#fff" opacity="0.4"/><rect width="8" height="8" rx="4" transform="translate(90 155)" fill="#fff" opacity="0.4"/><rect width="8" height="8" rx="4" transform="translate(113 155)" fill="#fff" opacity="0.4"/><rect width="8" height="8" rx="4" transform="translate(136 155)" fill="#fff" opacity="0.4"/><rect width="8" height="8" rx="4" transform="translate(160 155)" fill="#fff" opacity="0.4"/><rect width="8" height="8" rx="4" transform="translate(182 155)" fill="#fff" opacity="0.4"/></g></g><g transform="translate(1658 830)"><rect width="8" height="8" rx="4" transform="translate(67 40)" fill="#fff" opacity="0.4"/><rect width="8" height="8" rx="4" transform="translate(90 40)" fill="#fff" opacity="0.4"/><rect width="8" height="8" rx="4" transform="translate(113 40)" fill="#fff" opacity="0.4"/><rect width="8" height="8" rx="4" transform="translate(136 40)" fill="#fff" opacity="0.4"/><rect width="8" height="8" rx="4" transform="translate(160 40)" fill="#fff" opacity="0.4"/><rect width="8" height="8" rx="4" transform="translate(182 40)" fill="#fff" opacity="0.4"/><rect width="8" height="8" rx="4" transform="translate(67 63)" fill="#fff" opacity="0.4"/><rect width="8" height="8" rx="4" transform="translate(90 63)" fill="#fff" opacity="0.4"/><rect width="8" height="8" rx="4" transform="translate(113 63)" fill="#fff" opacity="0.4"/><rect width="8" height="8" rx="4" transform="translate(136 63)" fill="#fff" opacity="0.4"/><rect width="8" height="8" rx="4" transform="translate(160 63)" fill="#fff" opacity="0.4"/><rect width="8" height="8" rx="4" transform="translate(182 63)" fill="#fff" opacity="0.4"/><rect width="8" height="8" rx="4" transform="translate(67 86)" fill="#fff" opacity="0.4"/><rect width="8" height="8" rx="4" transform="translate(90 86)" fill="#fff" opacity="0.4"/><rect width="8" height="8" rx="4" transform="translate(113 86)" fill="#fff" opacity="0.4"/><rect width="8" height="8" rx="4" transform="translate(136 86)" fill="#fff" opacity="0.4"/><rect width="8" height="8" rx="4" transform="translate(160 86)" fill="#fff" opacity="0.4"/><rect width="8" height="8" rx="4" transform="translate(182 86)" fill="#fff" opacity="0.4"/><rect width="8" height="8" rx="4" transform="translate(67 109)" fill="#fff" opacity="0.4"/><rect width="8" height="8" rx="4" transform="translate(90 109)" fill="#fff" opacity="0.4"/><rect width="8" height="8" rx="4" transform="translate(113 109)" fill="#fff" opacity="0.4"/><rect width="8" height="8" rx="4" transform="translate(136 109)" fill="#fff" opacity="0.4"/><rect width="8" height="8" rx="4" transform="translate(160 109)" fill="#fff" opacity="0.4"/><rect width="8" height="8" rx="4" transform="translate(182 109)" fill="#fff" opacity="0.4"/><rect width="8" height="8" rx="4" transform="translate(67 133)" fill="#fff" opacity="0.4"/><rect width="8" height="8" rx="4" transform="translate(90 133)" fill="#fff" opacity="0.4"/><rect width="8" height="8" rx="4" transform="translate(113 133)" fill="#fff" opacity="0.4"/><rect width="8" height="8" rx="4" transform="translate(136 133)" fill="#fff" opacity="0.4"/><rect width="8" height="8" rx="4" transform="translate(160 133)" fill="#fff" opacity="0.4"/><rect width="8" height="8" rx="4" transform="translate(182 133)" fill="#fff" opacity="0.4"/><rect width="8" height="8" rx="4" transform="translate(67 155)" fill="#fff" opacity="0.4"/><rect width="8" height="8" rx="4" transform="translate(90 155)" fill="#fff" opacity="0.4"/><rect width="8" height="8" rx="4" transform="translate(113 155)" fill="#fff" opacity="0.4"/><rect width="8" height="8" rx="4" transform="translate(136 155)" fill="#fff" opacity="0.4"/><rect width="8" height="8" rx="4" transform="translate(160 155)" fill="#fff" opacity="0.4"/><rect width="8" height="8" rx="4" transform="translate(182 155)" fill="#fff" opacity="0.4"/></g><g transform="translate(62 830)"><rect width="8" height="8" rx="4" transform="translate(67 40)" fill="#18022a" opacity="0.4"/><rect width="8" height="8" rx="4" transform="translate(90 40)" fill="#18022a" opacity="0.4"/><rect width="8" height="8" rx="4" transform="translate(113 40)" fill="#18022a" opacity="0.4"/><rect width="8" height="8" rx="4" transform="translate(136 40)" fill="#18022a" opacity="0.4"/><rect width="8" height="8" rx="4" transform="translate(160 40)" fill="#18022a" opacity="0.4"/><rect width="8" height="8" rx="4" transform="translate(182 40)" fill="#18022a" opacity="0.4"/><rect width="8" height="8" rx="4" transform="translate(67 63)" fill="#18022a" opacity="0.4"/><rect width="8" height="8" rx="4" transform="translate(90 63)" fill="#18022a" opacity="0.4"/><rect width="8" height="8" rx="4" transform="translate(113 63)" fill="#18022a" opacity="0.4"/><rect width="8" height="8" rx="4" transform="translate(136 63)" fill="#18022a" opacity="0.4"/><rect width="8" height="8" rx="4" transform="translate(160 63)" fill="#18022a" opacity="0.4"/><rect width="8" height="8" rx="4" transform="translate(182 63)" fill="#18022a" opacity="0.4"/><rect width="8" height="8" rx="4" transform="translate(67 86)" fill="#18022a" opacity="0.4"/><rect width="8" height="8" rx="4" transform="translate(90 86)" fill="#18022a" opacity="0.4"/><rect width="8" height="8" rx="4" transform="translate(113 86)" fill="#18022a" opacity="0.4"/><rect width="8" height="8" rx="4" transform="translate(136 86)" fill="#18022a" opacity="0.4"/><rect width="8" height="8" rx="4" transform="translate(160 86)" fill="#18022a" opacity="0.4"/><rect width="8" height="8" rx="4" transform="translate(182 86)" fill="#18022a" opacity="0.4"/><rect width="8" height="8" rx="4" transform="translate(67 109)" fill="#18022a" opacity="0.4"/><rect width="8" height="8" rx="4" transform="translate(90 109)" fill="#18022a" opacity="0.4"/><rect width="8" height="8" rx="4" transform="translate(113 109)" fill="#18022a" opacity="0.4"/><rect width="8" height="8" rx="4" transform="translate(136 109)" fill="#18022a" opacity="0.4"/><rect width="8" height="8" rx="4" transform="translate(160 109)" fill="#18022a" opacity="0.4"/><rect width="8" height="8" rx="4" transform="translate(182 109)" fill="#18022a" opacity="0.4"/><rect width="8" height="8" rx="4" transform="translate(67 133)" fill="#18022a" opacity="0.4"/><rect width="8" height="8" rx="4" transform="translate(90 133)" fill="#18022a" opacity="0.4"/><rect width="8" height="8" rx="4" transform="translate(113 133)" fill="#18022a" opacity="0.4"/><rect width="8" height="8" rx="4" transform="translate(136 133)" fill="#18022a" opacity="0.4"/><rect width="8" height="8" rx="4" transform="translate(160 133)" fill="#18022a" opacity="0.4"/><rect width="8" height="8" rx="4" transform="translate(182 133)" fill="#18022a" opacity="0.4"/><rect width="8" height="8" rx="4" transform="translate(67 155)" fill="#18022a" opacity="0.4"/><rect width="8" height="8" rx="4" transform="translate(90 155)" fill="#18022a" opacity="0.4"/><rect width="8" height="8" rx="4" transform="translate(113 155)" fill="#18022a" opacity="0.4"/><rect width="8" height="8" rx="4" transform="translate(136 155)" fill="#18022a" opacity="0.4"/><rect width="8" height="8" rx="4" transform="translate(160 155)" fill="#18022a" opacity="0.4"/><rect width="8" height="8" rx="4" transform="translate(182 155)" fill="#18022a" opacity="0.4"/></g><g transform="matrix(1, 0, 0, 1, 0, 0)" filter="url(#j)"><path d="M1586.121,15l155.908,793.667-208.7-669.455Z" transform="matrix(0.98, 0.21, -0.21, 0.98, 32.57, -202.3)" fill="url(#i)"/></g><rect width="952" height="335" rx="36" transform="translate(484 405)" fill="#fff" opacity="0.08"/></g></svg>