<svg xmlns="http://www.w3.org/2000/svg" xmlns:xlink="http://www.w3.org/1999/xlink" width="414" height="736" viewBox="0 0 414 736"><defs><linearGradient id="a" x1="1.007" x2="-0.013" y2="1.012" gradientUnits="objectBoundingBox"><stop offset="0" stop-color="#cc1f66" stop-opacity="0.722"/><stop offset="1" stop-color="#070063"/></linearGradient><linearGradient id="b" x1="1" y1="0.086" x2="-0.623" y2="1.081" gradientUnits="objectBoundingBox"><stop offset="0" stop-color="#e1c7cb" stop-opacity="0.259"/><stop offset="1" stop-color="#eca5d5" stop-opacity="0.38"/></linearGradient><filter id="c" x="0" y="332.333" width="414" height="403.667" filterUnits="userSpaceOnUse"><feOffset dx="26" dy="3" input="SourceAlpha"/><feGaussianBlur stdDeviation="4" result="d"/><feFlood flood-opacity="0.161" result="e"/><feComposite operator="out" in="SourceGraphic" in2="d"/><feComposite operator="in" in="e"/><feComposite operator="in" in2="SourceGraphic"/></filter><filter id="f" x="36" y="37" width="361" height="638" filterUnits="userSpaceOnUse"><feOffset dx="10" dy="3" input="SourceAlpha"/><feGaussianBlur stdDeviation="3" result="g"/><feFlood flood-opacity="0.161"/><feComposite operator="in" in2="g"/><feComposite in="SourceGraphic"/></filter><clipPath id="i"><rect width="414" height="736"/></clipPath></defs><g id="h" clip-path="url(#i)"><rect width="414" height="736" fill="url(#a)"/><g transform="translate(296 -12)"><rect width="2" height="2" rx="1" transform="translate(67 40)" fill="#440a2d" opacity="0.4"/><rect width="2" height="2" rx="1" transform="translate(73 40)" fill="#440a2d" opacity="0.4"/><rect width="2" height="2" rx="1" transform="translate(78 40)" fill="#440a2d" opacity="0.4"/><rect width="2" height="2" rx="1" transform="translate(84 40)" fill="#440a2d" opacity="0.4"/><rect width="2" height="2" rx="1" transform="translate(90 40)" fill="#440a2d" opacity="0.4"/><rect width="2" height="2" rx="1" transform="translate(95 40)" fill="#440a2d" opacity="0.4"/><rect width="2" height="2" rx="1" transform="translate(67 46)" fill="#440a2d" opacity="0.4"/><rect width="2" height="2" rx="1" transform="translate(73 46)" fill="#440a2d" opacity="0.4"/><rect width="2" height="2" rx="1" transform="translate(78 46)" fill="#440a2d" opacity="0.4"/><rect width="2" height="2" rx="1" transform="translate(84 46)" fill="#440a2d" opacity="0.4"/><rect width="2" height="2" rx="1" transform="translate(90 46)" fill="#440a2d" opacity="0.4"/><rect width="2" height="2" rx="1" transform="translate(95 46)" fill="#440a2d" opacity="0.4"/><rect width="2" height="2" rx="1" transform="translate(67 51)" fill="#440a2d" opacity="0.4"/><rect width="2" height="2" rx="1" transform="translate(73 51)" fill="#440a2d" opacity="0.4"/><rect width="2" height="2" rx="1" transform="translate(78 51)" fill="#440a2d" opacity="0.4"/><rect width="2" height="2" rx="1" transform="translate(84 51)" fill="#440a2d" opacity="0.4"/><rect width="2" height="2" rx="1" transform="translate(90 51)" fill="#440a2d" opacity="0.4"/><rect width="2" height="2" rx="1" transform="translate(95 51)" fill="#440a2d" opacity="0.4"/><rect width="2" height="2" rx="1" transform="translate(67 57)" fill="#440a2d" opacity="0.4"/><rect width="2" height="2" rx="1" transform="translate(73 57)" fill="#440a2d" opacity="0.4"/><rect width="2" height="2" rx="1" transform="translate(78 57)" fill="#440a2d" opacity="0.4"/><rect width="2" height="2" rx="1" transform="translate(84 57)" fill="#440a2d" opacity="0.4"/><rect width="2" height="2" rx="1" transform="translate(90 57)" fill="#440a2d" opacity="0.4"/><rect width="2" height="2" rx="1" transform="translate(95 57)" fill="#440a2d" opacity="0.4"/><rect width="2" height="2" rx="1" transform="translate(67 63)" fill="#440a2d" opacity="0.4"/><rect width="2" height="2" rx="1" transform="translate(73 63)" fill="#440a2d" opacity="0.4"/><rect width="2" height="2" rx="1" transform="translate(78 63)" fill="#440a2d" opacity="0.4"/><rect width="2" height="2" rx="1" transform="translate(84 63)" fill="#440a2d" opacity="0.4"/><rect width="2" height="2" rx="1" transform="translate(90 63)" fill="#440a2d" opacity="0.4"/><rect width="2" height="2" rx="1" transform="translate(95 63)" fill="#440a2d" opacity="0.4"/><rect width="2" height="2" rx="1" transform="translate(67 68)" fill="#440a2d" opacity="0.4"/><rect width="2" height="2" rx="1" transform="translate(73 68)" fill="#440a2d" opacity="0.4"/><rect width="2" height="2" rx="1" transform="translate(78 68)" fill="#440a2d" opacity="0.4"/><rect width="2" height="2" rx="1" transform="translate(84 68)" fill="#440a2d" opacity="0.4"/><rect width="2" height="2" rx="1" transform="translate(90 68)" fill="#440a2d" opacity="0.4"/><rect width="2" height="2" rx="1" transform="translate(95 68)" fill="#440a2d" opacity="0.4"/></g><g data-type="innerShadowGroup"><path d="M214.992,672.351s-1.51-173.647,74.4-177.018,59.088-105.649,97.473-97.782,36.66-171.961,79.79-119.136,47.874,109.021,92.729,83.171,69.607,40.672,69.607,40.672l-.027,269.812Z" transform="translate(-214.99 63.649)" fill="url(#b)"/><g transform="matrix(1, 0, 0, 1, 0, 0)" filter="url(#c)"><path d="M214.992,672.351s-1.51-173.647,74.4-177.018,59.088-105.649,97.473-97.782,36.66-171.961,79.79-119.136,47.874,109.021,92.729,83.171,69.607,40.672,69.607,40.672l-.027,269.812Z" transform="translate(-214.99 63.65)" fill="#fff"/></g></g><g transform="matrix(1, 0, 0, 1, 0, 0)" filter="url(#f)"><rect width="342" height="620" rx="10" transform="translate(36 43)" fill="#180229" opacity="0.99"/></g><g transform="translate(-61 -30)"><rect width="2" height="2" rx="1" transform="translate(67 40)" fill="#ff13a1" opacity="0.4"/><rect width="2" height="2" rx="1" transform="translate(73 40)" fill="#ff13a1" opacity="0.4"/><rect width="2" height="2" rx="1" transform="translate(78 40)" fill="#ff13a1" opacity="0.4"/><rect width="2" height="2" rx="1" transform="translate(84 40)" fill="#ff13a1" opacity="0.4"/><rect width="2" height="2" rx="1" transform="translate(90 40)" fill="#ff13a1" opacity="0.4"/><rect width="2" height="2" rx="1" transform="translate(95 40)" fill="#ff13a1" opacity="0.4"/><rect width="2" height="2" rx="1" transform="translate(67 46)" fill="#ff13a1" opacity="0.4"/><rect width="2" height="2" rx="1" transform="translate(73 46)" fill="#ff13a1" opacity="0.4"/><rect width="2" height="2" rx="1" transform="translate(78 46)" fill="#ff13a1" opacity="0.4"/><rect width="2" height="2" rx="1" transform="translate(84 46)" fill="#ff13a1" opacity="0.4"/><rect width="2" height="2" rx="1" transform="translate(90 46)" fill="#ff13a1" opacity="0.4"/><rect width="2" height="2" rx="1" transform="translate(95 46)" fill="#ff13a1" opacity="0.4"/><rect width="2" height="2" rx="1" transform="translate(67 51)" fill="#ff13a1" opacity="0.4"/><rect width="2" height="2" rx="1" transform="translate(73 51)" fill="#ff13a1" opacity="0.4"/><rect width="2" height="2" rx="1" transform="translate(78 51)" fill="#ff13a1" opacity="0.4"/><rect width="2" height="2" rx="1" transform="translate(84 51)" fill="#ff13a1" opacity="0.4"/><rect width="2" height="2" rx="1" transform="translate(90 51)" fill="#ff13a1" opacity="0.4"/><rect width="2" height="2" rx="1" transform="translate(95 51)" fill="#ff13a1" opacity="0.4"/><rect width="2" height="2" rx="1" transform="translate(67 57)" fill="#ff13a1" opacity="0.4"/><rect width="2" height="2" rx="1" transform="translate(73 57)" fill="#ff13a1" opacity="0.4"/><rect width="2" height="2" rx="1" transform="translate(78 57)" fill="#ff13a1" opacity="0.4"/><rect width="2" height="2" rx="1" transform="translate(84 57)" fill="#ff13a1" opacity="0.4"/><rect width="2" height="2" rx="1" transform="translate(90 57)" fill="#ff13a1" opacity="0.4"/><rect width="2" height="2" rx="1" transform="translate(95 57)" fill="#ff13a1" opacity="0.4"/><rect width="2" height="2" rx="1" transform="translate(67 63)" fill="#ff13a1" opacity="0.4"/><rect width="2" height="2" rx="1" transform="translate(73 63)" fill="#ff13a1" opacity="0.4"/><rect width="2" height="2" rx="1" transform="translate(78 63)" fill="#ff13a1" opacity="0.4"/><rect width="2" height="2" rx="1" transform="translate(84 63)" fill="#ff13a1" opacity="0.4"/><rect width="2" height="2" rx="1" transform="translate(90 63)" fill="#ff13a1" opacity="0.4"/><rect width="2" height="2" rx="1" transform="translate(95 63)" fill="#ff13a1" opacity="0.4"/><rect width="2" height="2" rx="1" transform="translate(67 68)" fill="#ff13a1" opacity="0.4"/><rect width="2" height="2" rx="1" transform="translate(73 68)" fill="#ff13a1" opacity="0.4"/><rect width="2" height="2" rx="1" transform="translate(78 68)" fill="#ff13a1" opacity="0.4"/><rect width="2" height="2" rx="1" transform="translate(84 68)" fill="#ff13a1" opacity="0.4"/><rect width="2" height="2" rx="1" transform="translate(90 68)" fill="#ff13a1" opacity="0.4"/><rect width="2" height="2" rx="1" transform="translate(95 68)" fill="#ff13a1" opacity="0.4"/></g><g transform="translate(-67 185)"><rect width="2" height="2" rx="1" transform="translate(67 40)" fill="#ff13a1" opacity="0.4"/><rect width="2" height="2" rx="1" transform="translate(73 40)" fill="#ff13a1" opacity="0.4"/><rect width="2" height="2" rx="1" transform="translate(78 40)" fill="#ff13a1" opacity="0.4"/><rect width="2" height="2" rx="1" transform="translate(84 40)" fill="#ff13a1" opacity="0.4"/><rect width="2" height="2" rx="1" transform="translate(90 40)" fill="#ff13a1" opacity="0.4"/><rect width="2" height="2" rx="1" transform="translate(95 40)" fill="#ff13a1" opacity="0.4"/><rect width="2" height="2" rx="1" transform="translate(67 46)" fill="#ff13a1" opacity="0.4"/><rect width="2" height="2" rx="1" transform="translate(73 46)" fill="#ff13a1" opacity="0.4"/><rect width="2" height="2" rx="1" transform="translate(78 46)" fill="#ff13a1" opacity="0.4"/><rect width="2" height="2" rx="1" transform="translate(84 46)" fill="#ff13a1" opacity="0.4"/><rect width="2" height="2" rx="1" transform="translate(90 46)" fill="#ff13a1" opacity="0.4"/><rect width="2" height="2" rx="1" transform="translate(95 46)" fill="#ff13a1" opacity="0.4"/><rect width="2" height="2" rx="1" transform="translate(67 51)" fill="#ff13a1" opacity="0.4"/><rect width="2" height="2" rx="1" transform="translate(73 51)" fill="#ff13a1" opacity="0.4"/><rect width="2" height="2" rx="1" transform="translate(78 51)" fill="#ff13a1" opacity="0.4"/><rect width="2" height="2" rx="1" transform="translate(84 51)" fill="#ff13a1" opacity="0.4"/><rect width="2" height="2" rx="1" transform="translate(90 51)" fill="#ff13a1" opacity="0.4"/><rect width="2" height="2" rx="1" transform="translate(95 51)" fill="#ff13a1" opacity="0.4"/><rect width="2" height="2" rx="1" transform="translate(67 57)" fill="#ff13a1" opacity="0.4"/><rect width="2" height="2" rx="1" transform="translate(73 57)" fill="#ff13a1" opacity="0.4"/><rect width="2" height="2" rx="1" transform="translate(78 57)" fill="#ff13a1" opacity="0.4"/><rect width="2" height="2" rx="1" transform="translate(84 57)" fill="#ff13a1" opacity="0.4"/><rect width="2" height="2" rx="1" transform="translate(90 57)" fill="#ff13a1" opacity="0.4"/><rect width="2" height="2" rx="1" transform="translate(95 57)" fill="#ff13a1" opacity="0.4"/><rect width="2" height="2" rx="1" transform="translate(67 63)" fill="#ff13a1" opacity="0.4"/><rect width="2" height="2" rx="1" transform="translate(73 63)" fill="#ff13a1" opacity="0.4"/><rect width="2" height="2" rx="1" transform="translate(78 63)" fill="#ff13a1" opacity="0.4"/><rect width="2" height="2" rx="1" transform="translate(84 63)" fill="#ff13a1" opacity="0.4"/><rect width="2" height="2" rx="1" transform="translate(90 63)" fill="#ff13a1" opacity="0.4"/><rect width="2" height="2" rx="1" transform="translate(95 63)" fill="#ff13a1" opacity="0.4"/><rect width="2" height="2" rx="1" transform="translate(67 68)" fill="#ff13a1" opacity="0.4"/><rect width="2" height="2" rx="1" transform="translate(73 68)" fill="#ff13a1" opacity="0.4"/><rect width="2" height="2" rx="1" transform="translate(78 68)" fill="#ff13a1" opacity="0.4"/><rect width="2" height="2" rx="1" transform="translate(84 68)" fill="#ff13a1" opacity="0.4"/><rect width="2" height="2" rx="1" transform="translate(90 68)" fill="#ff13a1" opacity="0.4"/><rect width="2" height="2" rx="1" transform="translate(95 68)" fill="#ff13a1" opacity="0.4"/></g><g transform="translate(-67 479)"><rect width="2" height="2" rx="1" transform="translate(67 40)" fill="#ff13a1" opacity="0.4"/><rect width="2" height="2" rx="1" transform="translate(73 40)" fill="#ff13a1" opacity="0.4"/><rect width="2" height="2" rx="1" transform="translate(78 40)" fill="#ff13a1" opacity="0.4"/><rect width="2" height="2" rx="1" transform="translate(84 40)" fill="#ff13a1" opacity="0.4"/><rect width="2" height="2" rx="1" transform="translate(90 40)" fill="#ff13a1" opacity="0.4"/><rect width="2" height="2" rx="1" transform="translate(95 40)" fill="#ff13a1" opacity="0.4"/><rect width="2" height="2" rx="1" transform="translate(67 46)" fill="#ff13a1" opacity="0.4"/><rect width="2" height="2" rx="1" transform="translate(73 46)" fill="#ff13a1" opacity="0.4"/><rect width="2" height="2" rx="1" transform="translate(78 46)" fill="#ff13a1" opacity="0.4"/><rect width="2" height="2" rx="1" transform="translate(84 46)" fill="#ff13a1" opacity="0.4"/><rect width="2" height="2" rx="1" transform="translate(90 46)" fill="#ff13a1" opacity="0.4"/><rect width="2" height="2" rx="1" transform="translate(95 46)" fill="#ff13a1" opacity="0.4"/><rect width="2" height="2" rx="1" transform="translate(67 51)" fill="#ff13a1" opacity="0.4"/><rect width="2" height="2" rx="1" transform="translate(73 51)" fill="#ff13a1" opacity="0.4"/><rect width="2" height="2" rx="1" transform="translate(78 51)" fill="#ff13a1" opacity="0.4"/><rect width="2" height="2" rx="1" transform="translate(84 51)" fill="#ff13a1" opacity="0.4"/><rect width="2" height="2" rx="1" transform="translate(90 51)" fill="#ff13a1" opacity="0.4"/><rect width="2" height="2" rx="1" transform="translate(95 51)" fill="#ff13a1" opacity="0.4"/><rect width="2" height="2" rx="1" transform="translate(67 57)" fill="#ff13a1" opacity="0.4"/><rect width="2" height="2" rx="1" transform="translate(73 57)" fill="#ff13a1" opacity="0.4"/><rect width="2" height="2" rx="1" transform="translate(78 57)" fill="#ff13a1" opacity="0.4"/><rect width="2" height="2" rx="1" transform="translate(84 57)" fill="#ff13a1" opacity="0.4"/><rect width="2" height="2" rx="1" transform="translate(90 57)" fill="#ff13a1" opacity="0.4"/><rect width="2" height="2" rx="1" transform="translate(95 57)" fill="#ff13a1" opacity="0.4"/><rect width="2" height="2" rx="1" transform="translate(67 63)" fill="#ff13a1" opacity="0.4"/><rect width="2" height="2" rx="1" transform="translate(73 63)" fill="#ff13a1" opacity="0.4"/><rect width="2" height="2" rx="1" transform="translate(78 63)" fill="#ff13a1" opacity="0.4"/><rect width="2" height="2" rx="1" transform="translate(84 63)" fill="#ff13a1" opacity="0.4"/><rect width="2" height="2" rx="1" transform="translate(90 63)" fill="#ff13a1" opacity="0.4"/><rect width="2" height="2" rx="1" transform="translate(95 63)" fill="#ff13a1" opacity="0.4"/><rect width="2" height="2" rx="1" transform="translate(67 68)" fill="#ff13a1" opacity="0.4"/><rect width="2" height="2" rx="1" transform="translate(73 68)" fill="#ff13a1" opacity="0.4"/><rect width="2" height="2" rx="1" transform="translate(78 68)" fill="#ff13a1" opacity="0.4"/><rect width="2" height="2" rx="1" transform="translate(84 68)" fill="#ff13a1" opacity="0.4"/><rect width="2" height="2" rx="1" transform="translate(90 68)" fill="#ff13a1" opacity="0.4"/><rect width="2" height="2" rx="1" transform="translate(95 68)" fill="#ff13a1" opacity="0.4"/></g><g transform="translate(260 650)"><rect width="2" height="2" rx="1" transform="translate(67 40)" fill="#ff13a1" opacity="0.4"/><rect width="2" height="2" rx="1" transform="translate(73 40)" fill="#ff13a1" opacity="0.4"/><rect width="2" height="2" rx="1" transform="translate(78 40)" fill="#ff13a1" opacity="0.4"/><rect width="2" height="2" rx="1" transform="translate(84 40)" fill="#ff13a1" opacity="0.4"/><rect width="2" height="2" rx="1" transform="translate(90 40)" fill="#ff13a1" opacity="0.4"/><rect width="2" height="2" rx="1" transform="translate(95 40)" fill="#ff13a1" opacity="0.4"/><rect width="2" height="2" rx="1" transform="translate(67 46)" fill="#ff13a1" opacity="0.4"/><rect width="2" height="2" rx="1" transform="translate(73 46)" fill="#ff13a1" opacity="0.4"/><rect width="2" height="2" rx="1" transform="translate(78 46)" fill="#ff13a1" opacity="0.4"/><rect width="2" height="2" rx="1" transform="translate(84 46)" fill="#ff13a1" opacity="0.4"/><rect width="2" height="2" rx="1" transform="translate(90 46)" fill="#ff13a1" opacity="0.4"/><rect width="2" height="2" rx="1" transform="translate(95 46)" fill="#ff13a1" opacity="0.4"/><rect width="2" height="2" rx="1" transform="translate(67 51)" fill="#ff13a1" opacity="0.4"/><rect width="2" height="2" rx="1" transform="translate(73 51)" fill="#ff13a1" opacity="0.4"/><rect width="2" height="2" rx="1" transform="translate(78 51)" fill="#ff13a1" opacity="0.4"/><rect width="2" height="2" rx="1" transform="translate(84 51)" fill="#ff13a1" opacity="0.4"/><rect width="2" height="2" rx="1" transform="translate(90 51)" fill="#ff13a1" opacity="0.4"/><rect width="2" height="2" rx="1" transform="translate(95 51)" fill="#ff13a1" opacity="0.4"/><rect width="2" height="2" rx="1" transform="translate(67 57)" fill="#ff13a1" opacity="0.4"/><rect width="2" height="2" rx="1" transform="translate(73 57)" fill="#ff13a1" opacity="0.4"/><rect width="2" height="2" rx="1" transform="translate(78 57)" fill="#ff13a1" opacity="0.4"/><rect width="2" height="2" rx="1" transform="translate(84 57)" fill="#ff13a1" opacity="0.4"/><rect width="2" height="2" rx="1" transform="translate(90 57)" fill="#ff13a1" opacity="0.4"/><rect width="2" height="2" rx="1" transform="translate(95 57)" fill="#ff13a1" opacity="0.4"/><rect width="2" height="2" rx="1" transform="translate(67 63)" fill="#ff13a1" opacity="0.4"/><rect width="2" height="2" rx="1" transform="translate(73 63)" fill="#ff13a1" opacity="0.4"/><rect width="2" height="2" rx="1" transform="translate(78 63)" fill="#ff13a1" opacity="0.4"/><rect width="2" height="2" rx="1" transform="translate(84 63)" fill="#ff13a1" opacity="0.4"/><rect width="2" height="2" rx="1" transform="translate(90 63)" fill="#ff13a1" opacity="0.4"/><rect width="2" height="2" rx="1" transform="translate(95 63)" fill="#ff13a1" opacity="0.4"/><rect width="2" height="2" rx="1" transform="translate(67 68)" fill="#ff13a1" opacity="0.4"/><rect width="2" height="2" rx="1" transform="translate(73 68)" fill="#ff13a1" opacity="0.4"/><rect width="2" height="2" rx="1" transform="translate(78 68)" fill="#ff13a1" opacity="0.4"/><rect width="2" height="2" rx="1" transform="translate(84 68)" fill="#ff13a1" opacity="0.4"/><rect width="2" height="2" rx="1" transform="translate(90 68)" fill="#ff13a1" opacity="0.4"/><rect width="2" height="2" rx="1" transform="translate(95 68)" fill="#ff13a1" opacity="0.4"/></g></g></svg>